<svg width="425" height="75" viewBox="0 0 425 75" fill="none" xmlns="http://www.w3.org/2000/svg">
<path d="M26.8 28.592H15.76V74H7.024V28.592H0.208V21.392H7.024V17.648C7.024 11.76 8.528 7.472 11.536 4.784C14.608 2.032 19.504 0.655994 26.224 0.655994V7.952C22.384 7.952 19.664 8.72 18.064 10.256C16.528 11.728 15.76 14.192 15.76 17.648V21.392H26.8V28.592ZM33.7218 47.504C33.7218 42.128 34.8098 37.424 36.9858 33.392C39.1618 29.296 42.1378 26.128 45.9138 23.888C49.7538 21.648 54.0098 20.528 58.6818 20.528C63.2898 20.528 67.2898 21.52 70.6818 23.504C74.0738 25.488 76.6018 27.984 78.2658 30.992V21.392H87.0978V74H78.2658V64.208C76.5378 67.28 73.9458 69.84 70.4898 71.888C67.0978 73.872 63.1298 74.864 58.5858 74.864C53.9138 74.864 49.6898 73.712 45.9138 71.408C42.1378 69.104 39.1618 65.872 36.9858 61.712C34.8098 57.552 33.7218 52.816 33.7218 47.504ZM78.2658 47.6C78.2658 43.632 77.4658 40.176 75.8658 37.232C74.2658 34.288 72.0898 32.048 69.3378 30.512C66.6498 28.912 63.6738 28.112 60.4098 28.112C57.1458 28.112 54.1698 28.88 51.4818 30.416C48.7938 31.952 46.6498 34.192 45.0498 37.136C43.4498 40.08 42.6498 43.536 42.6498 47.504C42.6498 51.536 43.4498 55.056 45.0498 58.064C46.6498 61.008 48.7938 63.28 51.4818 64.88C54.1698 66.416 57.1458 67.184 60.4098 67.184C63.6738 67.184 66.6498 66.416 69.3378 64.88C72.0898 63.28 74.2658 61.008 75.8658 58.064C77.4658 55.056 78.2658 51.568 78.2658 47.6ZM106.373 12.848C104.709 12.848 103.301 12.272 102.149 11.12C100.997 9.968 100.421 8.56 100.421 6.89599C100.421 5.232 100.997 3.824 102.149 2.672C103.301 1.52 104.709 0.943996 106.373 0.943996C107.973 0.943996 109.317 1.52 110.405 2.672C111.557 3.824 112.133 5.232 112.133 6.89599C112.133 8.56 111.557 9.968 110.405 11.12C109.317 12.272 107.973 12.848 106.373 12.848ZM110.597 21.392V74H101.861V21.392H110.597ZM134.222 29.936C135.758 26.928 137.934 24.592 140.75 22.928C143.63 21.264 147.118 20.432 151.214 20.432V29.456H148.91C139.118 29.456 134.222 34.768 134.222 45.392V74H125.486V21.392H134.222V29.936ZM231.378 21.392L214.962 74H205.938L193.266 32.24L180.594 74H171.57L155.058 21.392H163.986L176.082 65.552L189.138 21.392H198.066L210.834 65.648L222.738 21.392H231.378ZM262.992 74.864C258.064 74.864 253.584 73.744 249.552 71.504C245.584 69.264 242.448 66.096 240.144 62C237.904 57.84 236.784 53.04 236.784 47.6C236.784 42.224 237.936 37.488 240.24 33.392C242.608 29.232 245.808 26.064 249.84 23.888C253.872 21.648 258.384 20.528 263.376 20.528C268.368 20.528 272.88 21.648 276.912 23.888C280.944 26.064 284.112 29.2 286.416 33.296C288.784 37.392 289.968 42.16 289.968 47.6C289.968 53.04 288.752 57.84 286.32 62C283.952 66.096 280.72 69.264 276.624 71.504C272.528 73.744 267.984 74.864 262.992 74.864ZM262.992 67.184C266.128 67.184 269.072 66.448 271.824 64.976C274.576 63.504 276.784 61.296 278.448 58.352C280.176 55.408 281.04 51.824 281.04 47.6C281.04 43.376 280.208 39.792 278.544 36.848C276.88 33.904 274.704 31.728 272.016 30.32C269.328 28.848 266.416 28.112 263.28 28.112C260.08 28.112 257.136 28.848 254.448 30.32C251.824 31.728 249.712 33.904 248.112 36.848C246.512 39.792 245.712 43.376 245.712 47.6C245.712 51.888 246.48 55.504 248.016 58.448C249.616 61.392 251.728 63.6 254.352 65.072C256.976 66.48 259.856 67.184 262.992 67.184ZM310.191 29.936C311.727 26.928 313.903 24.592 316.719 22.928C319.599 21.264 323.087 20.432 327.183 20.432V29.456H324.879C315.087 29.456 310.191 34.768 310.191 45.392V74H301.455V21.392H310.191V29.936ZM366.643 74L346.003 50.768V74H337.267V2.96H346.003V44.72L366.259 21.392H378.451L353.683 47.6L378.547 74H366.643ZM405.297 74.864C401.265 74.864 397.649 74.192 394.449 72.848C391.249 71.44 388.721 69.52 386.865 67.088C385.009 64.592 383.985 61.744 383.793 58.544H392.817C393.073 61.168 394.289 63.312 396.465 64.976C398.705 66.64 401.617 67.472 405.201 67.472C408.529 67.472 411.153 66.736 413.073 65.264C414.993 63.792 415.953 61.936 415.953 59.696C415.953 57.392 414.929 55.696 412.881 54.608C410.833 53.456 407.665 52.336 403.377 51.248C399.473 50.224 396.273 49.2 393.777 48.176C391.345 47.088 389.233 45.52 387.441 43.472C385.713 41.36 384.849 38.608 384.849 35.216C384.849 32.528 385.649 30.064 387.249 27.824C388.849 25.584 391.121 23.824 394.065 22.544C397.009 21.2 400.369 20.528 404.145 20.528C409.969 20.528 414.673 22 418.257 24.944C421.841 27.888 423.761 31.92 424.017 37.04H415.281C415.089 34.288 413.969 32.08 411.921 30.416C409.937 28.752 407.249 27.92 403.857 27.92C400.721 27.92 398.225 28.592 396.369 29.936C394.513 31.28 393.585 33.04 393.585 35.216C393.585 36.944 394.129 38.384 395.217 39.536C396.369 40.624 397.777 41.52 399.441 42.224C401.169 42.864 403.537 43.6 406.545 44.432C410.321 45.456 413.393 46.48 415.761 47.504C418.129 48.464 420.145 49.936 421.809 51.92C423.537 53.904 424.433 56.496 424.497 59.696C424.497 62.576 423.697 65.168 422.097 67.472C420.497 69.776 418.225 71.6 415.281 72.944C412.401 74.224 409.073 74.864 405.297 74.864Z" fill="#0058A3"/>
</svg>
