<svg width="456" height="112" viewBox="0 0 456 112" fill="none" xmlns="http://www.w3.org/2000/svg">
<path d="M1.824 39.368H37.248V44.168H1.824V39.368ZM40.416 17.48V22.76C39.776 22.568 38.848 22.312 37.632 21.992C36.48 21.672 35.136 21.512 33.6 21.512C31.616 21.512 29.984 21.896 28.704 22.664C27.424 23.368 26.464 24.552 25.824 26.216C25.184 27.88 24.864 30.088 24.864 32.84V83.528C24.864 83.848 25.216 84.136 25.92 84.392C26.624 84.584 27.584 84.712 28.8 84.776C30.016 84.84 31.296 84.872 32.64 84.872H33.6V89H2.592V84.872H3.456C5.632 84.872 7.328 84.68 8.544 84.296C9.76 83.848 10.368 82.984 10.368 81.704V34.76C10.368 30.344 11.296 26.824 13.152 24.2C15.072 21.512 17.664 19.56 20.928 18.344C24.192 17.128 27.904 16.52 32.064 16.52C33.792 16.52 35.392 16.616 36.864 16.808C38.4 16.936 39.584 17.16 40.416 17.48ZM72.9308 59.336V63.656C70.3708 63.912 68.0668 64.296 66.0188 64.808C63.9708 65.256 62.2108 65.832 60.7388 66.536C59.2668 67.24 58.0508 68.072 57.0908 69.032C56.1308 69.928 55.4268 70.984 54.9788 72.2C54.5308 73.416 54.3068 74.76 54.3068 76.232C54.3068 77.96 54.5628 79.4 55.0748 80.552C55.6508 81.704 56.4508 82.6 57.4748 83.24C58.5628 83.816 59.7788 84.104 61.1228 84.104C62.8508 84.104 64.3868 83.688 65.7308 82.856C67.1388 81.96 68.3548 80.744 69.3788 79.208C70.4668 77.672 71.3948 75.912 72.1628 73.928L73.2188 77.576C72.3868 80.136 71.1708 82.344 69.5708 84.2C68.0348 86.056 66.1468 87.496 63.9068 88.52C61.6668 89.48 59.0748 89.96 56.1308 89.96C53.0588 89.96 50.3388 89.448 47.9708 88.424C45.6668 87.4 43.8428 85.928 42.4988 84.008C41.2188 82.024 40.5788 79.656 40.5788 76.904C40.5788 74.216 41.2508 71.912 42.5948 69.992C44.0028 68.072 46.0828 66.44 48.8348 65.096C51.5868 63.688 54.9788 62.536 59.0108 61.64C63.0428 60.744 67.6828 59.976 72.9308 59.336ZM71.5868 89V79.592L70.5308 79.688V52.616C70.5308 50.376 70.2428 48.584 69.6668 47.24C69.0908 45.896 68.1948 44.936 66.9788 44.36C65.7628 43.72 64.2268 43.4 62.3708 43.4C59.7468 43.4 57.5388 43.944 55.7468 45.032C54.0188 46.12 52.6748 47.432 51.7148 48.968C51.5868 48.2 51.5548 47.496 51.6188 46.856C51.7468 46.216 51.9708 45.64 52.2908 45.128C52.6748 44.616 53.1228 44.2 53.6348 43.88C54.1468 43.56 54.7228 43.336 55.3628 43.208V54.44H43.9388V44.456C44.8988 43.752 46.2748 42.952 48.0668 42.056C49.8588 41.096 52.0668 40.264 54.6908 39.56C57.3788 38.792 60.4828 38.408 64.0028 38.408C67.0108 38.408 69.7948 38.728 72.3548 39.368C74.9148 40.008 77.1228 41 78.9788 42.344C80.8348 43.688 82.2748 45.416 83.2988 47.528C84.3228 49.576 84.8348 52.04 84.8348 54.92V81.704C84.8348 82.472 85.0588 83.08 85.5068 83.528C85.9548 83.912 86.5948 84.2 87.4268 84.392C88.2588 84.584 89.2188 84.712 90.3068 84.776H90.6908V89H71.5868ZM107.523 30.92C105.027 30.92 103.011 30.28 101.475 29C100.003 27.72 99.267 25.96 99.267 23.72C99.267 21.48 100.003 19.72 101.475 18.44C103.011 17.16 105.027 16.52 107.523 16.52C110.019 16.52 112.003 17.16 113.475 18.44C115.011 19.72 115.779 21.48 115.779 23.72C115.779 25.96 115.011 27.72 113.475 29C112.003 30.28 110.019 30.92 107.523 30.92ZM115.011 39.368V81.896C115.011 83.112 115.555 83.912 116.643 84.296C117.795 84.68 119.203 84.872 120.867 84.872H120.963V89H94.563V84.872H94.659C96.323 84.872 97.699 84.68 98.787 84.296C99.939 83.912 100.515 83.112 100.515 81.896V47.336C100.515 46.184 100.099 45.416 99.267 45.032C98.435 44.584 97.155 44.168 95.427 43.784L94.467 43.592V39.368H115.011ZM162.557 39.08V51.56C162.045 51.432 161.469 51.304 160.829 51.176C160.253 51.048 159.613 50.952 158.909 50.888C158.205 50.824 157.501 50.792 156.797 50.792C155.325 50.792 153.981 50.952 152.765 51.272C151.549 51.592 150.397 52.104 149.309 52.808C148.285 53.512 147.357 54.408 146.525 55.496C145.693 56.52 144.925 57.8 144.221 59.336L143.933 55.4C144.957 52.136 146.141 49.256 147.484 46.76C148.829 44.2 150.461 42.216 152.381 40.808C154.301 39.336 156.541 38.6 159.101 38.6C159.869 38.6 160.541 38.664 161.117 38.792C161.757 38.856 162.237 38.952 162.557 39.08ZM125.405 89V84.872H125.597C127.261 84.872 128.637 84.68 129.725 84.296C130.877 83.912 131.453 83.112 131.453 81.896V47.336C131.453 46.568 131.261 45.992 130.877 45.608C130.557 45.16 130.013 44.808 129.245 44.552C128.477 44.296 127.517 44.04 126.365 43.784L125.405 43.592V39.368H144.989V54.536L145.949 53.768V83.432C145.949 83.816 146.269 84.136 146.909 84.392C147.613 84.584 148.445 84.712 149.405 84.776C150.429 84.84 151.389 84.872 152.285 84.872H153.725V89H125.405ZM206.827 51.752L195.691 89H184.171L172.171 46.76C171.915 45.864 171.531 45.192 171.019 44.744C170.571 44.296 169.995 43.976 169.291 43.784C168.651 43.592 167.915 43.496 167.083 43.496H166.987V39.368H192.619V43.496H192.427C191.467 43.496 190.475 43.528 189.451 43.592C188.491 43.656 187.659 43.752 186.955 43.88C186.315 43.944 185.995 44.104 185.995 44.36L195.403 79.88L193.291 80.936L205.483 39.368H215.179L227.083 79.688L224.971 80.648L234.475 45.512C234.475 45.128 234.155 44.776 233.515 44.456C232.875 44.136 232.075 43.912 231.115 43.784C230.219 43.592 229.291 43.496 228.331 43.496H228.139V39.368H244.459V43.496H244.267C243.563 43.496 242.859 43.656 242.155 43.976C241.451 44.232 240.843 44.68 240.331 45.32C239.883 45.896 239.499 46.696 239.179 47.72L227.659 89H216.235L205.195 51.56L206.827 51.752ZM300.406 64.232C300.406 69.288 299.254 73.768 296.95 77.672C294.71 81.512 291.574 84.52 287.542 86.696C283.51 88.872 278.774 89.96 273.334 89.96C267.958 89.96 263.222 88.904 259.126 86.792C255.094 84.616 251.958 81.576 249.718 77.672C247.478 73.768 246.358 69.288 246.358 64.232C246.358 60.456 246.998 57 248.278 53.864C249.558 50.664 251.382 47.944 253.75 45.704C256.182 43.4 259.03 41.608 262.294 40.328C265.622 39.048 269.302 38.408 273.334 38.408C277.43 38.408 281.11 39.048 284.374 40.328C287.702 41.544 290.55 43.304 292.918 45.608C295.35 47.912 297.206 50.664 298.486 53.864C299.766 57 300.406 60.456 300.406 64.232ZM261.334 64.232C261.334 68.776 261.782 72.616 262.678 75.752C263.638 78.824 265.014 81.16 266.806 82.76C268.598 84.296 270.774 85.064 273.334 85.064C275.958 85.064 278.134 84.296 279.862 82.76C281.654 81.16 282.998 78.824 283.894 75.752C284.854 72.616 285.334 68.776 285.334 64.232C285.334 59.624 284.854 55.784 283.894 52.712C282.998 49.64 281.654 47.336 279.862 45.8C278.134 44.2 275.958 43.4 273.334 43.4C270.774 43.4 268.598 44.2 266.806 45.8C265.014 47.336 263.638 49.64 262.678 52.712C261.782 55.784 261.334 59.624 261.334 64.232ZM343.307 39.08V51.56C342.795 51.432 342.219 51.304 341.579 51.176C341.003 51.048 340.363 50.952 339.659 50.888C338.955 50.824 338.251 50.792 337.547 50.792C336.075 50.792 334.731 50.952 333.515 51.272C332.299 51.592 331.147 52.104 330.059 52.808C329.035 53.512 328.107 54.408 327.275 55.496C326.443 56.52 325.675 57.8 324.971 59.336L324.683 55.4C325.707 52.136 326.891 49.256 328.234 46.76C329.579 44.2 331.211 42.216 333.131 40.808C335.051 39.336 337.291 38.6 339.851 38.6C340.619 38.6 341.291 38.664 341.867 38.792C342.507 38.856 342.987 38.952 343.307 39.08ZM306.155 89V84.872H306.347C308.011 84.872 309.387 84.68 310.475 84.296C311.627 83.912 312.203 83.112 312.203 81.896V47.336C312.203 46.568 312.011 45.992 311.627 45.608C311.307 45.16 310.763 44.808 309.995 44.552C309.227 44.296 308.267 44.04 307.115 43.784L306.155 43.592V39.368H325.739V54.536L326.699 53.768V83.432C326.699 83.816 327.019 84.136 327.659 84.392C328.363 84.584 329.195 84.712 330.155 84.776C331.179 84.84 332.139 84.872 333.035 84.872H334.475V89H306.155ZM406.817 89H379.841V84.872H380.033C380.609 84.872 381.281 84.84 382.049 84.776C382.817 84.712 383.457 84.616 383.969 84.488C384.545 84.296 384.833 84.104 384.833 83.912L370.145 63.656V62.408L388.769 45.416C388.769 44.904 388.417 44.52 387.713 44.264C387.009 44.008 386.145 43.816 385.121 43.688C384.161 43.56 383.201 43.496 382.241 43.496H381.377V39.368H402.977V43.496H402.881C401.857 43.496 400.801 43.656 399.713 43.976C398.625 44.296 397.537 44.776 396.449 45.416C395.425 45.992 394.369 46.728 393.281 47.624L378.881 60.776L381.089 55.88L399.809 81.608C400.449 82.376 401.153 83.016 401.921 83.528C402.689 83.976 403.489 84.328 404.321 84.584C405.153 84.776 405.921 84.872 406.625 84.872H406.817V89ZM368.417 17.576V83.624C368.417 83.944 368.673 84.2 369.185 84.392C369.761 84.584 370.433 84.712 371.201 84.776C372.033 84.84 372.865 84.872 373.697 84.872H373.793V89H347.969V84.872H348.065C349.729 84.872 351.105 84.68 352.193 84.296C353.345 83.912 353.921 83.112 353.921 81.896V25.448C353.921 24.68 353.729 24.104 353.345 23.72C353.025 23.272 352.481 22.92 351.713 22.664C351.009 22.408 350.049 22.184 348.833 21.992L347.873 21.8V17.576H368.417ZM440.841 77.576C440.841 76.296 440.521 75.24 439.881 74.408C439.241 73.576 438.345 72.872 437.193 72.296C436.105 71.72 434.793 71.208 433.257 70.76C431.785 70.248 430.153 69.736 428.361 69.224C426.505 68.712 424.585 68.104 422.601 67.4C420.681 66.696 418.889 65.768 417.225 64.616C415.625 63.464 414.345 61.992 413.385 60.2C412.425 58.408 411.945 56.136 411.945 53.384C411.945 50.248 412.777 47.56 414.441 45.32C416.105 43.08 418.441 41.384 421.449 40.232C424.457 39.016 428.009 38.408 432.105 38.408C435.305 38.408 438.089 38.664 440.457 39.176C442.889 39.688 444.873 40.296 446.409 41C447.945 41.704 449.033 42.312 449.673 42.824V52.328H439.401V42.824C440.041 42.824 440.585 42.984 441.033 43.304C441.481 43.56 441.801 43.912 441.993 44.36C442.249 44.808 442.377 45.288 442.377 45.8C442.377 46.248 442.313 46.632 442.185 46.952C441.545 46.184 440.745 45.544 439.785 45.032C438.825 44.456 437.737 44.008 436.521 43.688C435.305 43.368 433.897 43.208 432.297 43.208C429.225 43.208 426.953 43.848 425.481 45.128C424.009 46.408 423.273 48.04 423.273 50.024C423.273 51.368 423.625 52.488 424.329 53.384C425.033 54.28 425.961 55.048 427.113 55.688C428.329 56.264 429.705 56.776 431.241 57.224C432.841 57.672 434.537 58.152 436.329 58.664C438.313 59.176 440.265 59.816 442.185 60.584C444.169 61.288 445.961 62.184 447.561 63.272C449.225 64.36 450.537 65.768 451.497 67.496C452.521 69.16 453.033 71.24 453.033 73.736C453.033 77.064 452.169 79.944 450.441 82.376C448.713 84.808 446.217 86.696 442.953 88.04C439.689 89.32 435.689 89.96 430.953 89.96C427.561 89.96 424.521 89.672 421.833 89.096C419.209 88.52 416.937 87.816 415.017 86.984C413.097 86.152 411.529 85.352 410.313 84.584V74.216H421.065V85.832C420.361 85.448 419.753 85.032 419.241 84.584C418.793 84.072 418.473 83.592 418.281 83.144C418.089 82.696 418.025 82.28 418.089 81.896C418.153 81.448 418.313 81.032 418.569 80.648C419.465 81.672 420.521 82.504 421.737 83.144C422.953 83.784 424.329 84.296 425.865 84.68C427.401 85 429.033 85.16 430.761 85.16C432.937 85.16 434.761 84.872 436.233 84.296C437.705 83.656 438.825 82.792 439.593 81.704C440.425 80.552 440.841 79.176 440.841 77.576Z" fill="#222222"/>
<ellipse cx="107" cy="24" rx="9" ry="8" fill="#86BC25"/>
</svg>
