<svg width="454" height="144" viewBox="0 0 454 144" fill="none" xmlns="http://www.w3.org/2000/svg">
<path d="M31.008 63.856H21.696V106H8.064V63.856H2.016V52.816H8.064V50.128C8.064 43.6 9.92 38.8 13.632 35.728C17.344 32.656 22.944 31.216 30.432 31.408V42.736C27.168 42.672 24.896 43.216 23.616 44.368C22.336 45.52 21.696 47.6 21.696 50.608V52.816H31.008V63.856ZM36.2617 79.216C36.2617 73.84 37.3177 69.072 39.4297 64.912C41.6058 60.752 44.5178 57.552 48.1658 55.312C51.8778 53.072 56.0058 51.952 60.5498 51.952C64.5178 51.952 67.9738 52.752 70.9178 54.352C73.9258 55.952 76.3258 57.968 78.1178 60.4V52.816H91.6538V106H78.1178V98.224C76.3898 100.72 73.9898 102.8 70.9178 104.464C67.9098 106.064 64.4218 106.864 60.4538 106.864C55.9738 106.864 51.8778 105.712 48.1658 103.408C44.5178 101.104 41.6058 97.872 39.4297 93.712C37.3177 89.488 36.2617 84.656 36.2617 79.216ZM78.1178 79.408C78.1178 76.144 77.4778 73.36 76.1978 71.056C74.9178 68.688 73.1898 66.896 71.0138 65.68C68.8378 64.4 66.5018 63.76 64.0058 63.76C61.5098 63.76 59.2058 64.368 57.0938 65.584C54.9818 66.8 53.2538 68.592 51.9098 70.96C50.6298 73.264 49.9898 76.016 49.9898 79.216C49.9898 82.416 50.6298 85.232 51.9098 87.664C53.2538 90.032 54.9818 91.856 57.0938 93.136C59.2698 94.416 61.5738 95.056 64.0058 95.056C66.5018 95.056 68.8378 94.448 71.0138 93.232C73.1898 91.952 74.9178 90.16 76.1978 87.856C77.4778 85.488 78.1178 82.672 78.1178 79.408ZM111.596 46.48C109.228 46.48 107.244 45.744 105.644 44.272C104.108 42.736 103.34 40.848 103.34 38.608C103.34 36.368 104.108 34.512 105.644 33.04C107.244 31.504 109.228 30.736 111.596 30.736C113.964 30.736 115.916 31.504 117.452 33.04C119.052 34.512 119.852 36.368 119.852 38.608C119.852 40.848 119.052 42.736 117.452 44.272C115.916 45.744 113.964 46.48 111.596 46.48ZM118.22 52.816V106H104.78V52.816H118.22ZM144.939 61.072C146.667 58.256 148.907 56.048 151.659 54.448C154.475 52.848 157.675 52.048 161.259 52.048V66.16H157.707C153.483 66.16 150.283 67.152 148.107 69.136C145.995 71.12 144.939 74.576 144.939 79.504V106H131.499V52.816H144.939V61.072ZM244.04 52.816L228.488 106H213.992L204.296 68.848L194.6 106H180.008L164.36 52.816H177.992L187.4 93.328L197.576 52.816H211.784L221.768 93.232L231.176 52.816H244.04ZM274.928 106.864C269.808 106.864 265.2 105.744 261.104 103.504C257.008 101.2 253.776 97.968 251.408 93.808C249.104 89.648 247.952 84.848 247.952 79.408C247.952 73.968 249.136 69.168 251.504 65.008C253.936 60.848 257.232 57.648 261.392 55.408C265.552 53.104 270.192 51.952 275.312 51.952C280.432 51.952 285.072 53.104 289.232 55.408C293.392 57.648 296.656 60.848 299.024 65.008C301.456 69.168 302.672 73.968 302.672 79.408C302.672 84.848 301.424 89.648 298.927 93.808C296.496 97.968 293.168 101.2 288.944 103.504C284.784 105.744 280.112 106.864 274.928 106.864ZM274.928 95.152C277.36 95.152 279.632 94.576 281.744 93.424C283.92 92.208 285.648 90.416 286.928 88.048C288.208 85.68 288.848 82.8 288.848 79.408C288.848 74.352 287.504 70.48 284.816 67.792C282.192 65.04 278.96 63.664 275.12 63.664C271.28 63.664 268.048 65.04 265.424 67.792C262.864 70.48 261.584 74.352 261.584 79.408C261.584 84.464 262.832 88.368 265.328 91.12C267.888 93.808 271.088 95.152 274.928 95.152ZM325.97 61.072C327.698 58.256 329.938 56.048 332.69 54.448C335.506 52.848 338.706 52.048 342.29 52.048V66.16H338.738C334.514 66.16 331.314 67.152 329.138 69.136C327.026 71.12 325.97 74.576 325.97 79.504V106H312.53V52.816H325.97V61.072ZM382.831 106L364.783 83.344V106H351.343V34.96H364.783V75.376L382.639 52.816H400.111L376.687 79.504L400.303 106H382.831ZM427.757 106.864C423.405 106.864 419.501 106.096 416.045 104.56C412.589 102.96 409.837 100.816 407.789 98.128C405.805 95.44 404.717 92.464 404.525 89.2H418.061C418.317 91.248 419.309 92.944 421.037 94.288C422.829 95.632 425.037 96.304 427.661 96.304C430.221 96.304 432.205 95.792 433.613 94.768C435.085 93.744 435.821 92.432 435.821 90.832C435.821 89.104 434.925 87.824 433.133 86.992C431.405 86.096 428.621 85.136 424.781 84.112C420.813 83.152 417.549 82.16 414.989 81.136C412.493 80.112 410.317 78.544 408.461 76.432C406.669 74.32 405.773 71.472 405.773 67.888C405.773 64.944 406.605 62.256 408.269 59.824C409.997 57.392 412.429 55.472 415.565 54.064C418.765 52.656 422.509 51.952 426.797 51.952C433.133 51.952 438.189 53.552 441.965 56.752C445.741 59.888 447.821 64.144 448.205 69.52H435.341C435.149 67.408 434.253 65.744 432.653 64.528C431.117 63.248 429.037 62.608 426.413 62.608C423.981 62.608 422.093 63.056 420.749 63.952C419.469 64.848 418.829 66.096 418.829 67.696C418.829 69.488 419.725 70.864 421.517 71.824C423.309 72.72 426.093 73.648 429.869 74.608C433.709 75.568 436.877 76.56 439.373 77.584C441.869 78.608 444.013 80.208 445.805 82.384C447.661 84.496 448.621 87.312 448.685 90.832C448.685 93.904 447.821 96.656 446.093 99.088C444.429 101.52 441.997 103.44 438.797 104.848C435.661 106.192 431.981 106.864 427.757 106.864Z" fill="#222222"/>
<circle cx="111" cy="39" r="9" fill="#86BC25"/>
</svg>
