<svg width="432" height="144" viewBox="0 0 432 144" fill="none" xmlns="http://www.w3.org/2000/svg">
<path d="M28.8 60.592H17.76V106H9.024V60.592H2.208V53.392H9.024V49.648C9.024 43.76 10.528 39.472 13.536 36.784C16.608 34.032 21.504 32.656 28.224 32.656V39.952C24.384 39.952 21.664 40.72 20.064 42.256C18.528 43.728 17.76 46.192 17.76 49.648V53.392H28.8V60.592ZM35.7218 79.504C35.7218 74.128 36.8098 69.424 38.9858 65.392C41.1618 61.296 44.1378 58.128 47.9138 55.888C51.7538 53.648 56.0098 52.528 60.6818 52.528C65.2898 52.528 69.2898 53.52 72.6818 55.504C76.0738 57.488 78.6018 59.984 80.2658 62.992V53.392H89.0978V106H80.2658V96.208C78.5378 99.28 75.9458 101.84 72.4898 103.888C69.0978 105.872 65.1298 106.864 60.5858 106.864C55.9138 106.864 51.6898 105.712 47.9138 103.408C44.1378 101.104 41.1618 97.872 38.9858 93.712C36.8098 89.552 35.7218 84.816 35.7218 79.504ZM80.2658 79.6C80.2658 75.632 79.4658 72.176 77.8658 69.232C76.2658 66.288 74.0898 64.048 71.3378 62.512C68.6498 60.912 65.6738 60.112 62.4098 60.112C59.1458 60.112 56.1698 60.88 53.4818 62.416C50.7938 63.952 48.6498 66.192 47.0498 69.136C45.4498 72.08 44.6498 75.536 44.6498 79.504C44.6498 83.536 45.4498 87.056 47.0498 90.064C48.6498 93.008 50.7938 95.28 53.4818 96.88C56.1698 98.416 59.1458 99.184 62.4098 99.184C65.6738 99.184 68.6498 98.416 71.3378 96.88C74.0898 95.28 76.2658 93.008 77.8658 90.064C79.4658 87.056 80.2658 83.568 80.2658 79.6ZM108.373 44.848C106.709 44.848 105.301 44.272 104.149 43.12C102.997 41.968 102.421 40.56 102.421 38.896C102.421 37.232 102.997 35.824 104.149 34.672C105.301 33.52 106.709 32.944 108.373 32.944C109.973 32.944 111.317 33.52 112.405 34.672C113.557 35.824 114.133 37.232 114.133 38.896C114.133 40.56 113.557 41.968 112.405 43.12C111.317 44.272 109.973 44.848 108.373 44.848ZM112.597 53.392V106H103.861V53.392H112.597ZM136.222 61.936C137.758 58.928 139.934 56.592 142.75 54.928C145.63 53.264 149.118 52.432 153.214 52.432V61.456H150.91C141.118 61.456 136.222 66.768 136.222 77.392V106H127.486V53.392H136.222V61.936ZM233.378 53.392L216.962 106H207.938L195.266 64.24L182.594 106H173.57L157.058 53.392H165.986L178.082 97.552L191.138 53.392H200.066L212.834 97.648L224.738 53.392H233.378ZM264.992 106.864C260.064 106.864 255.584 105.744 251.552 103.504C247.584 101.264 244.448 98.096 242.144 94C239.904 89.84 238.784 85.04 238.784 79.6C238.784 74.224 239.936 69.488 242.24 65.392C244.608 61.232 247.808 58.064 251.84 55.888C255.872 53.648 260.384 52.528 265.376 52.528C270.368 52.528 274.88 53.648 278.912 55.888C282.944 58.064 286.112 61.2 288.416 65.296C290.784 69.392 291.968 74.16 291.968 79.6C291.968 85.04 290.752 89.84 288.32 94C285.952 98.096 282.72 101.264 278.624 103.504C274.528 105.744 269.984 106.864 264.992 106.864ZM264.992 99.184C268.128 99.184 271.072 98.448 273.824 96.976C276.576 95.504 278.784 93.296 280.448 90.352C282.176 87.408 283.04 83.824 283.04 79.6C283.04 75.376 282.208 71.792 280.544 68.848C278.88 65.904 276.704 63.728 274.016 62.32C271.328 60.848 268.416 60.112 265.28 60.112C262.08 60.112 259.136 60.848 256.448 62.32C253.824 63.728 251.712 65.904 250.112 68.848C248.512 71.792 247.712 75.376 247.712 79.6C247.712 83.888 248.48 87.504 250.016 90.448C251.616 93.392 253.728 95.6 256.352 97.072C258.976 98.48 261.856 99.184 264.992 99.184ZM312.191 61.936C313.727 58.928 315.903 56.592 318.719 54.928C321.599 53.264 325.087 52.432 329.183 52.432V61.456H326.879C317.087 61.456 312.191 66.768 312.191 77.392V106H303.455V53.392H312.191V61.936ZM368.643 106L348.003 82.768V106H339.267V34.96H348.003V76.72L368.259 53.392H380.451L355.683 79.6L380.547 106H368.643ZM407.297 106.864C403.265 106.864 399.649 106.192 396.449 104.848C393.249 103.44 390.721 101.52 388.865 99.088C387.009 96.592 385.985 93.744 385.793 90.544H394.817C395.073 93.168 396.289 95.312 398.465 96.976C400.705 98.64 403.617 99.472 407.201 99.472C410.529 99.472 413.153 98.736 415.073 97.264C416.993 95.792 417.953 93.936 417.953 91.696C417.953 89.392 416.929 87.696 414.881 86.608C412.833 85.456 409.665 84.336 405.377 83.248C401.473 82.224 398.273 81.2 395.777 80.176C393.345 79.088 391.233 77.52 389.441 75.472C387.713 73.36 386.849 70.608 386.849 67.216C386.849 64.528 387.649 62.064 389.249 59.824C390.849 57.584 393.121 55.824 396.065 54.544C399.009 53.2 402.369 52.528 406.145 52.528C411.969 52.528 416.673 54 420.257 56.944C423.841 59.888 425.761 63.92 426.017 69.04H417.281C417.089 66.288 415.969 64.08 413.921 62.416C411.937 60.752 409.249 59.92 405.857 59.92C402.721 59.92 400.225 60.592 398.369 61.936C396.513 63.28 395.585 65.04 395.585 67.216C395.585 68.944 396.129 70.384 397.217 71.536C398.369 72.624 399.777 73.52 401.441 74.224C403.169 74.864 405.537 75.6 408.545 76.432C412.321 77.456 415.393 78.48 417.761 79.504C420.129 80.464 422.145 81.936 423.809 83.92C425.537 85.904 426.433 88.496 426.497 91.696C426.497 94.576 425.697 97.168 424.097 99.472C422.497 101.776 420.225 103.6 417.281 104.944C414.401 106.224 411.073 106.864 407.297 106.864Z" fill="#13294B"/>
</svg>
